<svg xmlns="http://www.w3.org/2000/svg" width="1120" height="620" viewBox="0 0 1120 620">
<rect width="100%" height="100%" fill="#ffffff"/>
<text x="560.0" y="34.0" font-family="Arial, sans-serif" font-size="22" text-anchor="middle" fill="#111827">Infeasible Accept Attempts</text>
<text x="560.0" y="56.0" font-family="Arial, sans-serif" font-size="12" text-anchor="middle" fill="#111827">Representative cascade band: +/- $500</text>
<line x1="80.0" y1="520.0" x2="1080.0" y2="520.0" stroke="#e5e7eb" stroke-width="1"/>
<text x="70.0" y="524.0" font-family="Arial, sans-serif" font-size="11" text-anchor="end" fill="#111827">0</text>
<line x1="80.0" y1="430.0" x2="1080.0" y2="430.0" stroke="#e5e7eb" stroke-width="1"/>
<text x="70.0" y="434.0" font-family="Arial, sans-serif" font-size="11" text-anchor="end" fill="#111827">173</text>
<line x1="80.0" y1="340.0" x2="1080.0" y2="340.0" stroke="#e5e7eb" stroke-width="1"/>
<text x="70.0" y="344.0" font-family="Arial, sans-serif" font-size="11" text-anchor="end" fill="#111827">347</text>
<line x1="80.0" y1="250.0" x2="1080.0" y2="250.0" stroke="#e5e7eb" stroke-width="1"/>
<text x="70.0" y="254.0" font-family="Arial, sans-serif" font-size="11" text-anchor="end" fill="#111827">520</text>
<line x1="80.0" y1="160.0" x2="1080.0" y2="160.0" stroke="#e5e7eb" stroke-width="1"/>
<text x="70.0" y="164.0" font-family="Arial, sans-serif" font-size="11" text-anchor="end" fill="#111827">694</text>
<line x1="80.0" y1="70.0" x2="1080.0" y2="70.0" stroke="#e5e7eb" stroke-width="1"/>
<text x="70.0" y="74.0" font-family="Arial, sans-serif" font-size="11" text-anchor="end" fill="#111827">867</text>
<line x1="80.0" y1="70.0" x2="80.0" y2="520.0" stroke="#475569" stroke-width="1"/>
<line x1="80.0" y1="520.0" x2="1080.0" y2="520.0" stroke="#475569" stroke-width="1"/>
<rect x="126.7" y="352.1" width="28.0" height="167.9" rx="2" fill="#64748b"/>
<rect x="162.7" y="358.2" width="28.0" height="161.8" rx="2" fill="#0f766e"/>
<rect x="198.7" y="461.7" width="28.0" height="58.3" rx="2" fill="#b45309"/>
<rect x="234.7" y="480.4" width="28.0" height="39.6" rx="2" fill="#2563eb"/>
<rect x="270.7" y="520.0" width="28.0" height="0.0" rx="2" fill="#7c3aed"/>
<text x="246.7" y="546.0" font-family="Arial, sans-serif" font-size="13" text-anchor="middle" fill="#111827">Mild</text>
<rect x="460.0" y="236.4" width="28.0" height="283.6" rx="2" fill="#64748b"/>
<rect x="496.0" y="243.2" width="28.0" height="276.8" rx="2" fill="#0f766e"/>
<rect x="532.0" y="474.7" width="28.0" height="45.3" rx="2" fill="#b45309"/>
<rect x="568.0" y="502.2" width="28.0" height="17.8" rx="2" fill="#2563eb"/>
<rect x="604.0" y="520.0" width="28.0" height="0.0" rx="2" fill="#7c3aed"/>
<text x="580.0" y="546.0" font-family="Arial, sans-serif" font-size="13" text-anchor="middle" fill="#111827">Tight</text>
<rect x="793.3" y="128.7" width="28.0" height="391.3" rx="2" fill="#64748b"/>
<rect x="829.3" y="136.1" width="28.0" height="383.9" rx="2" fill="#0f766e"/>
<rect x="865.3" y="499.1" width="28.0" height="20.9" rx="2" fill="#b45309"/>
<rect x="901.3" y="520.0" width="28.0" height="0.0" rx="2" fill="#2563eb"/>
<rect x="937.3" y="520.0" width="28.0" height="0.0" rx="2" fill="#7c3aed"/>
<text x="913.3" y="546.0" font-family="Arial, sans-serif" font-size="13" text-anchor="middle" fill="#111827">Scarce</text>
<rect x="80.0" y="566.0" width="14.0" height="14.0" rx="2" fill="#64748b"/>
<text x="100.0" y="578.0" font-family="Arial, sans-serif" font-size="12" text-anchor="start" fill="#111827">Myopic</text>
<rect x="270.0" y="566.0" width="14.0" height="14.0" rx="2" fill="#0f766e"/>
<text x="290.0" y="578.0" font-family="Arial, sans-serif" font-size="12" text-anchor="start" fill="#111827">Bid price</text>
<rect x="460.0" y="566.0" width="14.0" height="14.0" rx="2" fill="#b45309"/>
<text x="480.0" y="578.0" font-family="Arial, sans-serif" font-size="12" text-anchor="start" fill="#111827">Linear surrogate</text>
<rect x="650.0" y="566.0" width="14.0" height="14.0" rx="2" fill="#2563eb"/>
<text x="670.0" y="578.0" font-family="Arial, sans-serif" font-size="12" text-anchor="start" fill="#111827">Cascade</text>
<rect x="840.0" y="566.0" width="14.0" height="14.0" rx="2" fill="#7c3aed"/>
<text x="860.0" y="578.0" font-family="Arial, sans-serif" font-size="12" text-anchor="start" fill="#111827">Rollout</text>
</svg>