<svg xmlns="http://www.w3.org/2000/svg" width="920" height="600" viewBox="0 0 920 600">
<rect width="100%" height="100%" fill="#ffffff"/>
<text x="460.0" y="34.0" font-family="Arial, sans-serif" font-size="22" text-anchor="middle" fill="#111827">Latency-Profit Frontier</text>
<text x="460.0" y="580.0" font-family="Arial, sans-serif" font-size="13" text-anchor="middle" fill="#111827">Mean latency (ms)</text>
<text x="24.0" y="301.0" font-family="Arial, sans-serif" font-size="13" text-anchor="middle" fill="#111827">Profit retention vs rollout</text>
<line x1="82.0" y1="530.0" x2="740.0" y2="530.0" stroke="#e5e7eb" stroke-width="1"/>
<text x="72.0" y="534.0" font-family="Arial, sans-serif" font-size="11" text-anchor="end" fill="#111827">64%</text>
<line x1="82.0" y1="438.4" x2="740.0" y2="438.4" stroke="#e5e7eb" stroke-width="1"/>
<text x="72.0" y="442.4" font-family="Arial, sans-serif" font-size="11" text-anchor="end" fill="#111827">72%</text>
<line x1="82.0" y1="346.8" x2="740.0" y2="346.8" stroke="#e5e7eb" stroke-width="1"/>
<text x="72.0" y="350.8" font-family="Arial, sans-serif" font-size="11" text-anchor="end" fill="#111827">80%</text>
<line x1="82.0" y1="255.2" x2="740.0" y2="255.2" stroke="#e5e7eb" stroke-width="1"/>
<text x="72.0" y="259.2" font-family="Arial, sans-serif" font-size="11" text-anchor="end" fill="#111827">89%</text>
<line x1="82.0" y1="163.6" x2="740.0" y2="163.6" stroke="#e5e7eb" stroke-width="1"/>
<text x="72.0" y="167.6" font-family="Arial, sans-serif" font-size="11" text-anchor="end" fill="#111827">97%</text>
<line x1="82.0" y1="72.0" x2="740.0" y2="72.0" stroke="#e5e7eb" stroke-width="1"/>
<text x="72.0" y="76.0" font-family="Arial, sans-serif" font-size="11" text-anchor="end" fill="#111827">105%</text>
<line x1="82.0" y1="72.0" x2="82.0" y2="530.0" stroke="#f1f5f9" stroke-width="1"/>
<text x="82.0" y="550.0" font-family="Arial, sans-serif" font-size="11" text-anchor="middle" fill="#111827">0.0</text>
<line x1="213.6" y1="72.0" x2="213.6" y2="530.0" stroke="#f1f5f9" stroke-width="1"/>
<text x="213.6" y="550.0" font-family="Arial, sans-serif" font-size="11" text-anchor="middle" fill="#111827">6.3</text>
<line x1="345.2" y1="72.0" x2="345.2" y2="530.0" stroke="#f1f5f9" stroke-width="1"/>
<text x="345.2" y="550.0" font-family="Arial, sans-serif" font-size="11" text-anchor="middle" fill="#111827">12.7</text>
<line x1="476.8" y1="72.0" x2="476.8" y2="530.0" stroke="#f1f5f9" stroke-width="1"/>
<text x="476.8" y="550.0" font-family="Arial, sans-serif" font-size="11" text-anchor="middle" fill="#111827">19.0</text>
<line x1="608.4" y1="72.0" x2="608.4" y2="530.0" stroke="#f1f5f9" stroke-width="1"/>
<text x="608.4" y="550.0" font-family="Arial, sans-serif" font-size="11" text-anchor="middle" fill="#111827">25.3</text>
<line x1="740.0" y1="72.0" x2="740.0" y2="530.0" stroke="#f1f5f9" stroke-width="1"/>
<text x="740.0" y="550.0" font-family="Arial, sans-serif" font-size="11" text-anchor="middle" fill="#111827">31.7</text>
<line x1="82.0" y1="72.0" x2="82.0" y2="530.0" stroke="#475569" stroke-width="1"/>
<line x1="82.0" y1="530.0" x2="740.0" y2="530.0" stroke="#475569" stroke-width="1"/>
<circle cx="113.0" cy="268.1" r="4" fill="#0f766e"/>
<line x1="113.0" y1="268.1" x2="172.4" y2="259.8" stroke="#0f766e" stroke-width="2.5"/>
<circle cx="172.4" cy="259.8" r="4" fill="#0f766e"/>
<line x1="172.4" y1="259.8" x2="255.6" y2="249.6" stroke="#0f766e" stroke-width="2.5"/>
<circle cx="255.6" cy="249.6" r="4" fill="#0f766e"/>
<line x1="255.6" y1="249.6" x2="412.7" y2="217.6" stroke="#0f766e" stroke-width="2.5"/>
<circle cx="412.7" cy="217.6" r="4" fill="#0f766e"/>
<line x1="412.7" y1="217.6" x2="498.2" y2="191.1" stroke="#0f766e" stroke-width="2.5"/>
<circle cx="498.2" cy="191.1" r="4" fill="#0f766e"/>
<line x1="498.2" y1="191.1" x2="612.0" y2="157.4" stroke="#0f766e" stroke-width="2.5"/>
<circle cx="612.0" cy="157.4" r="4" fill="#0f766e"/>
<line x1="612.0" y1="157.4" x2="691.3" y2="159.4" stroke="#0f766e" stroke-width="2.5"/>
<circle cx="691.3" cy="159.4" r="4" fill="#0f766e"/>
<rect x="780.0" y="88.0" width="14.0" height="14.0" rx="2" fill="#0f766e"/>
<text x="800.0" y="100.0" font-family="Arial, sans-serif" font-size="12" text-anchor="start" fill="#111827">Mild</text>
<circle cx="104.5" cy="368.4" r="4" fill="#2563eb"/>
<line x1="104.5" y1="368.4" x2="146.6" y2="354.1" stroke="#2563eb" stroke-width="2.5"/>
<circle cx="146.6" cy="354.1" r="4" fill="#2563eb"/>
<line x1="146.6" y1="354.1" x2="203.8" y2="341.4" stroke="#2563eb" stroke-width="2.5"/>
<circle cx="203.8" cy="341.4" r="4" fill="#2563eb"/>
<line x1="203.8" y1="341.4" x2="311.9" y2="279.7" stroke="#2563eb" stroke-width="2.5"/>
<circle cx="311.9" cy="279.7" r="4" fill="#2563eb"/>
<line x1="311.9" y1="279.7" x2="380.3" y2="268.3" stroke="#2563eb" stroke-width="2.5"/>
<circle cx="380.3" cy="268.3" r="4" fill="#2563eb"/>
<line x1="380.3" y1="268.3" x2="446.2" y2="223.7" stroke="#2563eb" stroke-width="2.5"/>
<circle cx="446.2" cy="223.7" r="4" fill="#2563eb"/>
<line x1="446.2" y1="223.7" x2="479.5" y2="218.6" stroke="#2563eb" stroke-width="2.5"/>
<circle cx="479.5" cy="218.6" r="4" fill="#2563eb"/>
<rect x="780.0" y="114.0" width="14.0" height="14.0" rx="2" fill="#2563eb"/>
<text x="800.0" y="126.0" font-family="Arial, sans-serif" font-size="12" text-anchor="start" fill="#111827">Tight</text>
<circle cx="102.4" cy="496.7" r="4" fill="#b91c1c"/>
<line x1="102.4" y1="496.7" x2="129.0" y2="487.5" stroke="#b91c1c" stroke-width="2.5"/>
<circle cx="129.0" cy="487.5" r="4" fill="#b91c1c"/>
<line x1="129.0" y1="487.5" x2="167.8" y2="460.7" stroke="#b91c1c" stroke-width="2.5"/>
<circle cx="167.8" cy="460.7" r="4" fill="#b91c1c"/>
<line x1="167.8" y1="460.7" x2="234.7" y2="391.1" stroke="#b91c1c" stroke-width="2.5"/>
<circle cx="234.7" cy="391.1" r="4" fill="#b91c1c"/>
<line x1="234.7" y1="391.1" x2="259.3" y2="357.9" stroke="#b91c1c" stroke-width="2.5"/>
<circle cx="259.3" cy="357.9" r="4" fill="#b91c1c"/>
<line x1="259.3" y1="357.9" x2="272.4" y2="329.5" stroke="#b91c1c" stroke-width="2.5"/>
<circle cx="272.4" cy="329.5" r="4" fill="#b91c1c"/>
<line x1="272.4" y1="329.5" x2="332.4" y2="233.4" stroke="#b91c1c" stroke-width="2.5"/>
<circle cx="332.4" cy="233.4" r="4" fill="#b91c1c"/>
<rect x="780.0" y="140.0" width="14.0" height="14.0" rx="2" fill="#b91c1c"/>
<text x="800.0" y="152.0" font-family="Arial, sans-serif" font-size="12" text-anchor="start" fill="#111827">Scarce</text>
</svg>