<svg xmlns="http://www.w3.org/2000/svg" width="920" height="600" viewBox="0 0 920 600">
<rect width="100%" height="100%" fill="#ffffff"/>
<text x="460.0" y="34.0" font-family="Arial, sans-serif" font-size="22" text-anchor="middle" fill="#111827">Rollout Share-Profit Frontier</text>
<text x="460.0" y="580.0" font-family="Arial, sans-serif" font-size="13" text-anchor="middle" fill="#111827">Rollout-call share</text>
<text x="24.0" y="301.0" font-family="Arial, sans-serif" font-size="13" text-anchor="middle" fill="#111827">Profit retention vs rollout</text>
<line x1="82.0" y1="530.0" x2="740.0" y2="530.0" stroke="#e5e7eb" stroke-width="1"/>
<text x="72.0" y="534.0" font-family="Arial, sans-serif" font-size="11" text-anchor="end" fill="#111827">64%</text>
<line x1="82.0" y1="438.4" x2="740.0" y2="438.4" stroke="#e5e7eb" stroke-width="1"/>
<text x="72.0" y="442.4" font-family="Arial, sans-serif" font-size="11" text-anchor="end" fill="#111827">72%</text>
<line x1="82.0" y1="346.8" x2="740.0" y2="346.8" stroke="#e5e7eb" stroke-width="1"/>
<text x="72.0" y="350.8" font-family="Arial, sans-serif" font-size="11" text-anchor="end" fill="#111827">80%</text>
<line x1="82.0" y1="255.2" x2="740.0" y2="255.2" stroke="#e5e7eb" stroke-width="1"/>
<text x="72.0" y="259.2" font-family="Arial, sans-serif" font-size="11" text-anchor="end" fill="#111827">89%</text>
<line x1="82.0" y1="163.6" x2="740.0" y2="163.6" stroke="#e5e7eb" stroke-width="1"/>
<text x="72.0" y="167.6" font-family="Arial, sans-serif" font-size="11" text-anchor="end" fill="#111827">97%</text>
<line x1="82.0" y1="72.0" x2="740.0" y2="72.0" stroke="#e5e7eb" stroke-width="1"/>
<text x="72.0" y="76.0" font-family="Arial, sans-serif" font-size="11" text-anchor="end" fill="#111827">105%</text>
<line x1="82.0" y1="72.0" x2="82.0" y2="530.0" stroke="#f1f5f9" stroke-width="1"/>
<text x="82.0" y="550.0" font-family="Arial, sans-serif" font-size="11" text-anchor="middle" fill="#111827">0.0</text>
<line x1="213.6" y1="72.0" x2="213.6" y2="530.0" stroke="#f1f5f9" stroke-width="1"/>
<text x="213.6" y="550.0" font-family="Arial, sans-serif" font-size="11" text-anchor="middle" fill="#111827">0.1</text>
<line x1="345.2" y1="72.0" x2="345.2" y2="530.0" stroke="#f1f5f9" stroke-width="1"/>
<text x="345.2" y="550.0" font-family="Arial, sans-serif" font-size="11" text-anchor="middle" fill="#111827">0.3</text>
<line x1="476.8" y1="72.0" x2="476.8" y2="530.0" stroke="#f1f5f9" stroke-width="1"/>
<text x="476.8" y="550.0" font-family="Arial, sans-serif" font-size="11" text-anchor="middle" fill="#111827">0.4</text>
<line x1="608.4" y1="72.0" x2="608.4" y2="530.0" stroke="#f1f5f9" stroke-width="1"/>
<text x="608.4" y="550.0" font-family="Arial, sans-serif" font-size="11" text-anchor="middle" fill="#111827">0.6</text>
<line x1="740.0" y1="72.0" x2="740.0" y2="530.0" stroke="#f1f5f9" stroke-width="1"/>
<text x="740.0" y="550.0" font-family="Arial, sans-serif" font-size="11" text-anchor="middle" fill="#111827">0.7</text>
<line x1="82.0" y1="72.0" x2="82.0" y2="530.0" stroke="#475569" stroke-width="1"/>
<line x1="82.0" y1="530.0" x2="740.0" y2="530.0" stroke="#475569" stroke-width="1"/>
<circle cx="134.4" cy="268.1" r="4" fill="#0f766e"/>
<line x1="134.4" y1="268.1" x2="190.5" y2="259.8" stroke="#0f766e" stroke-width="2.5"/>
<circle cx="190.5" cy="259.8" r="4" fill="#0f766e"/>
<line x1="190.5" y1="259.8" x2="262.8" y2="249.6" stroke="#0f766e" stroke-width="2.5"/>
<circle cx="262.8" cy="249.6" r="4" fill="#0f766e"/>
<line x1="262.8" y1="249.6" x2="401.7" y2="217.6" stroke="#0f766e" stroke-width="2.5"/>
<circle cx="401.7" cy="217.6" r="4" fill="#0f766e"/>
<line x1="401.7" y1="217.6" x2="487.8" y2="191.1" stroke="#0f766e" stroke-width="2.5"/>
<circle cx="487.8" cy="191.1" r="4" fill="#0f766e"/>
<line x1="487.8" y1="191.1" x2="603.9" y2="157.4" stroke="#0f766e" stroke-width="2.5"/>
<circle cx="603.9" cy="157.4" r="4" fill="#0f766e"/>
<line x1="603.9" y1="157.4" x2="656.7" y2="159.4" stroke="#0f766e" stroke-width="2.5"/>
<circle cx="656.7" cy="159.4" r="4" fill="#0f766e"/>
<rect x="780.0" y="88.0" width="14.0" height="14.0" rx="2" fill="#0f766e"/>
<text x="800.0" y="100.0" font-family="Arial, sans-serif" font-size="12" text-anchor="start" fill="#111827">Mild</text>
<circle cx="149.9" cy="368.4" r="4" fill="#2563eb"/>
<line x1="149.9" y1="368.4" x2="205.3" y2="354.1" stroke="#2563eb" stroke-width="2.5"/>
<circle cx="205.3" cy="354.1" r="4" fill="#2563eb"/>
<line x1="205.3" y1="354.1" x2="290.0" y2="341.4" stroke="#2563eb" stroke-width="2.5"/>
<circle cx="290.0" cy="341.4" r="4" fill="#2563eb"/>
<line x1="290.0" y1="341.4" x2="458.0" y2="279.7" stroke="#2563eb" stroke-width="2.5"/>
<circle cx="458.0" cy="279.7" r="4" fill="#2563eb"/>
<line x1="458.0" y1="279.7" x2="541.1" y2="268.3" stroke="#2563eb" stroke-width="2.5"/>
<circle cx="541.1" cy="268.3" r="4" fill="#2563eb"/>
<line x1="541.1" y1="268.3" x2="622.4" y2="223.7" stroke="#2563eb" stroke-width="2.5"/>
<circle cx="622.4" cy="223.7" r="4" fill="#2563eb"/>
<line x1="622.4" y1="223.7" x2="691.3" y2="218.6" stroke="#2563eb" stroke-width="2.5"/>
<circle cx="691.3" cy="218.6" r="4" fill="#2563eb"/>
<rect x="780.0" y="114.0" width="14.0" height="14.0" rx="2" fill="#2563eb"/>
<text x="800.0" y="126.0" font-family="Arial, sans-serif" font-size="12" text-anchor="start" fill="#111827">Tight</text>
<circle cx="168.4" cy="496.7" r="4" fill="#b91c1c"/>
<line x1="168.4" y1="496.7" x2="220.1" y2="487.5" stroke="#b91c1c" stroke-width="2.5"/>
<circle cx="220.1" cy="487.5" r="4" fill="#b91c1c"/>
<line x1="220.1" y1="487.5" x2="302.9" y2="460.7" stroke="#b91c1c" stroke-width="2.5"/>
<circle cx="302.9" cy="460.7" r="4" fill="#b91c1c"/>
<line x1="302.9" y1="460.7" x2="427.7" y2="391.1" stroke="#b91c1c" stroke-width="2.5"/>
<circle cx="427.7" cy="391.1" r="4" fill="#b91c1c"/>
<line x1="427.7" y1="391.1" x2="483.6" y2="357.9" stroke="#b91c1c" stroke-width="2.5"/>
<circle cx="483.6" cy="357.9" r="4" fill="#b91c1c"/>
<line x1="483.6" y1="357.9" x2="520.4" y2="329.5" stroke="#b91c1c" stroke-width="2.5"/>
<circle cx="520.4" cy="329.5" r="4" fill="#b91c1c"/>
<line x1="520.4" y1="329.5" x2="669.3" y2="233.4" stroke="#b91c1c" stroke-width="2.5"/>
<circle cx="669.3" cy="233.4" r="4" fill="#b91c1c"/>
<rect x="780.0" y="140.0" width="14.0" height="14.0" rx="2" fill="#b91c1c"/>
<text x="800.0" y="152.0" font-family="Arial, sans-serif" font-size="12" text-anchor="start" fill="#111827">Scarce</text>
</svg>