<svg xmlns="http://www.w3.org/2000/svg" width="920" height="600" viewBox="0 0 920 600">
<rect width="100%" height="100%" fill="#ffffff"/>
<text x="460.0" y="34.0" font-family="Arial, sans-serif" font-size="22" text-anchor="middle" fill="#111827">Rollout Share-Profit Frontier</text>
<text x="460.0" y="580.0" font-family="Arial, sans-serif" font-size="13" text-anchor="middle" fill="#111827">Rollout-call share</text>
<text x="24.0" y="301.0" font-family="Arial, sans-serif" font-size="13" text-anchor="middle" fill="#111827">Profit retention vs rollout</text>
<line x1="82.0" y1="530.0" x2="740.0" y2="530.0" stroke="#e5e7eb" stroke-width="1"/>
<text x="72.0" y="534.0" font-family="Arial, sans-serif" font-size="11" text-anchor="end" fill="#111827">80%</text>
<line x1="82.0" y1="438.4" x2="740.0" y2="438.4" stroke="#e5e7eb" stroke-width="1"/>
<text x="72.0" y="442.4" font-family="Arial, sans-serif" font-size="11" text-anchor="end" fill="#111827">85%</text>
<line x1="82.0" y1="346.8" x2="740.0" y2="346.8" stroke="#e5e7eb" stroke-width="1"/>
<text x="72.0" y="350.8" font-family="Arial, sans-serif" font-size="11" text-anchor="end" fill="#111827">90%</text>
<line x1="82.0" y1="255.2" x2="740.0" y2="255.2" stroke="#e5e7eb" stroke-width="1"/>
<text x="72.0" y="259.2" font-family="Arial, sans-serif" font-size="11" text-anchor="end" fill="#111827">95%</text>
<line x1="82.0" y1="163.6" x2="740.0" y2="163.6" stroke="#e5e7eb" stroke-width="1"/>
<text x="72.0" y="167.6" font-family="Arial, sans-serif" font-size="11" text-anchor="end" fill="#111827">100%</text>
<line x1="82.0" y1="72.0" x2="740.0" y2="72.0" stroke="#e5e7eb" stroke-width="1"/>
<text x="72.0" y="76.0" font-family="Arial, sans-serif" font-size="11" text-anchor="end" fill="#111827">106%</text>
<line x1="82.0" y1="72.0" x2="82.0" y2="530.0" stroke="#f1f5f9" stroke-width="1"/>
<text x="82.0" y="550.0" font-family="Arial, sans-serif" font-size="11" text-anchor="middle" fill="#111827">0.0</text>
<line x1="213.6" y1="72.0" x2="213.6" y2="530.0" stroke="#f1f5f9" stroke-width="1"/>
<text x="213.6" y="550.0" font-family="Arial, sans-serif" font-size="11" text-anchor="middle" fill="#111827">0.2</text>
<line x1="345.2" y1="72.0" x2="345.2" y2="530.0" stroke="#f1f5f9" stroke-width="1"/>
<text x="345.2" y="550.0" font-family="Arial, sans-serif" font-size="11" text-anchor="middle" fill="#111827">0.3</text>
<line x1="476.8" y1="72.0" x2="476.8" y2="530.0" stroke="#f1f5f9" stroke-width="1"/>
<text x="476.8" y="550.0" font-family="Arial, sans-serif" font-size="11" text-anchor="middle" fill="#111827">0.5</text>
<line x1="608.4" y1="72.0" x2="608.4" y2="530.0" stroke="#f1f5f9" stroke-width="1"/>
<text x="608.4" y="550.0" font-family="Arial, sans-serif" font-size="11" text-anchor="middle" fill="#111827">0.6</text>
<line x1="740.0" y1="72.0" x2="740.0" y2="530.0" stroke="#f1f5f9" stroke-width="1"/>
<text x="740.0" y="550.0" font-family="Arial, sans-serif" font-size="11" text-anchor="middle" fill="#111827">0.8</text>
<line x1="82.0" y1="72.0" x2="82.0" y2="530.0" stroke="#475569" stroke-width="1"/>
<line x1="82.0" y1="530.0" x2="740.0" y2="530.0" stroke="#475569" stroke-width="1"/>
<circle cx="293.9" cy="366.1" r="4" fill="#2563eb"/>
<line x1="293.9" y1="366.1" x2="340.3" y2="313.5" stroke="#2563eb" stroke-width="2.5"/>
<circle cx="340.3" cy="313.5" r="4" fill="#2563eb"/>
<line x1="340.3" y1="313.5" x2="396.6" y2="329.7" stroke="#2563eb" stroke-width="2.5"/>
<circle cx="396.6" cy="329.7" r="4" fill="#2563eb"/>
<line x1="396.6" y1="329.7" x2="505.8" y2="269.4" stroke="#2563eb" stroke-width="2.5"/>
<circle cx="505.8" cy="269.4" r="4" fill="#2563eb"/>
<line x1="505.8" y1="269.4" x2="558.8" y2="247.8" stroke="#2563eb" stroke-width="2.5"/>
<circle cx="558.8" cy="247.8" r="4" fill="#2563eb"/>
<line x1="558.8" y1="247.8" x2="648.2" y2="125.8" stroke="#2563eb" stroke-width="2.5"/>
<circle cx="648.2" cy="125.8" r="4" fill="#2563eb"/>
<line x1="648.2" y1="125.8" x2="691.3" y2="213.4" stroke="#2563eb" stroke-width="2.5"/>
<circle cx="691.3" cy="213.4" r="4" fill="#2563eb"/>
<rect x="780.0" y="88.0" width="14.0" height="14.0" rx="2" fill="#2563eb"/>
<text x="800.0" y="100.0" font-family="Arial, sans-serif" font-size="12" text-anchor="start" fill="#111827">Tight</text>
</svg>