<svg xmlns="http://www.w3.org/2000/svg" width="1120" height="620" viewBox="0 0 1120 620">
<rect width="100%" height="100%" fill="#ffffff"/>
<text x="560.0" y="34.0" font-family="Arial, sans-serif" font-size="22" text-anchor="middle" fill="#111827">Infeasible Accept Attempts</text>
<text x="560.0" y="56.0" font-family="Arial, sans-serif" font-size="12" text-anchor="middle" fill="#111827">Representative cascade band: +/- $500</text>
<line x1="80.0" y1="520.0" x2="1080.0" y2="520.0" stroke="#e5e7eb" stroke-width="1"/>
<text x="70.0" y="524.0" font-family="Arial, sans-serif" font-size="11" text-anchor="end" fill="#111827">0</text>
<line x1="80.0" y1="430.0" x2="1080.0" y2="430.0" stroke="#e5e7eb" stroke-width="1"/>
<text x="70.0" y="434.0" font-family="Arial, sans-serif" font-size="11" text-anchor="end" fill="#111827">177</text>
<line x1="80.0" y1="340.0" x2="1080.0" y2="340.0" stroke="#e5e7eb" stroke-width="1"/>
<text x="70.0" y="344.0" font-family="Arial, sans-serif" font-size="11" text-anchor="end" fill="#111827">354</text>
<line x1="80.0" y1="250.0" x2="1080.0" y2="250.0" stroke="#e5e7eb" stroke-width="1"/>
<text x="70.0" y="254.0" font-family="Arial, sans-serif" font-size="11" text-anchor="end" fill="#111827">531</text>
<line x1="80.0" y1="160.0" x2="1080.0" y2="160.0" stroke="#e5e7eb" stroke-width="1"/>
<text x="70.0" y="164.0" font-family="Arial, sans-serif" font-size="11" text-anchor="end" fill="#111827">708</text>
<line x1="80.0" y1="70.0" x2="1080.0" y2="70.0" stroke="#e5e7eb" stroke-width="1"/>
<text x="70.0" y="74.0" font-family="Arial, sans-serif" font-size="11" text-anchor="end" fill="#111827">885</text>
<line x1="80.0" y1="70.0" x2="80.0" y2="520.0" stroke="#475569" stroke-width="1"/>
<line x1="80.0" y1="520.0" x2="1080.0" y2="520.0" stroke="#475569" stroke-width="1"/>
<rect x="126.7" y="350.8" width="28.0" height="169.2" rx="2" fill="#64748b"/>
<rect x="162.7" y="358.2" width="28.0" height="161.8" rx="2" fill="#0f766e"/>
<rect x="198.7" y="462.4" width="28.0" height="57.6" rx="2" fill="#b45309"/>
<rect x="234.7" y="494.5" width="28.0" height="25.5" rx="2" fill="#2563eb"/>
<rect x="270.7" y="520.0" width="28.0" height="0.0" rx="2" fill="#7c3aed"/>
<text x="246.7" y="546.0" font-family="Arial, sans-serif" font-size="13" text-anchor="middle" fill="#111827">Mild</text>
<rect x="460.0" y="239.0" width="28.0" height="281.0" rx="2" fill="#64748b"/>
<rect x="496.0" y="245.5" width="28.0" height="274.5" rx="2" fill="#0f766e"/>
<rect x="532.0" y="467.9" width="28.0" height="52.1" rx="2" fill="#b45309"/>
<rect x="568.0" y="503.5" width="28.0" height="16.5" rx="2" fill="#2563eb"/>
<rect x="604.0" y="520.0" width="28.0" height="0.0" rx="2" fill="#7c3aed"/>
<text x="580.0" y="546.0" font-family="Arial, sans-serif" font-size="13" text-anchor="middle" fill="#111827">Tight</text>
<rect x="793.3" y="128.7" width="28.0" height="391.3" rx="2" fill="#64748b"/>
<rect x="829.3" y="135.5" width="28.0" height="384.5" rx="2" fill="#0f766e"/>
<rect x="865.3" y="460.3" width="28.0" height="59.7" rx="2" fill="#b45309"/>
<rect x="901.3" y="515.2" width="28.0" height="4.8" rx="2" fill="#2563eb"/>
<rect x="937.3" y="520.0" width="28.0" height="0.0" rx="2" fill="#7c3aed"/>
<text x="913.3" y="546.0" font-family="Arial, sans-serif" font-size="13" text-anchor="middle" fill="#111827">Scarce</text>
<rect x="80.0" y="566.0" width="14.0" height="14.0" rx="2" fill="#64748b"/>
<text x="100.0" y="578.0" font-family="Arial, sans-serif" font-size="12" text-anchor="start" fill="#111827">Myopic</text>
<rect x="270.0" y="566.0" width="14.0" height="14.0" rx="2" fill="#0f766e"/>
<text x="290.0" y="578.0" font-family="Arial, sans-serif" font-size="12" text-anchor="start" fill="#111827">Bid price</text>
<rect x="460.0" y="566.0" width="14.0" height="14.0" rx="2" fill="#b45309"/>
<text x="480.0" y="578.0" font-family="Arial, sans-serif" font-size="12" text-anchor="start" fill="#111827">Linear surrogate</text>
<rect x="650.0" y="566.0" width="14.0" height="14.0" rx="2" fill="#2563eb"/>
<text x="670.0" y="578.0" font-family="Arial, sans-serif" font-size="12" text-anchor="start" fill="#111827">Cascade</text>
<rect x="840.0" y="566.0" width="14.0" height="14.0" rx="2" fill="#7c3aed"/>
<text x="860.0" y="578.0" font-family="Arial, sans-serif" font-size="12" text-anchor="start" fill="#111827">Rollout</text>
</svg>