<svg xmlns="http://www.w3.org/2000/svg" width="1120" height="620" viewBox="0 0 1120 620">
<rect width="100%" height="100%" fill="#ffffff"/>
<text x="560.0" y="34.0" font-family="Arial, sans-serif" font-size="22" text-anchor="middle" fill="#111827">Profit Retention by Scenario and Policy</text>
<text x="560.0" y="56.0" font-family="Arial, sans-serif" font-size="12" text-anchor="middle" fill="#111827">Representative cascade band: +/- $500</text>
<line x1="80.0" y1="475.0" x2="1080.0" y2="475.0" stroke="#e5e7eb" stroke-width="1"/>
<text x="70.0" y="479.0" font-family="Arial, sans-serif" font-size="11" text-anchor="end" fill="#111827">75%</text>
<line x1="80.0" y1="385.0" x2="1080.0" y2="385.0" stroke="#e5e7eb" stroke-width="1"/>
<text x="70.0" y="389.0" font-family="Arial, sans-serif" font-size="11" text-anchor="end" fill="#111827">85%</text>
<line x1="80.0" y1="295.0" x2="1080.0" y2="295.0" stroke="#e5e7eb" stroke-width="1"/>
<text x="70.0" y="299.0" font-family="Arial, sans-serif" font-size="11" text-anchor="end" fill="#111827">95%</text>
<line x1="80.0" y1="205.0" x2="1080.0" y2="205.0" stroke="#e5e7eb" stroke-width="1"/>
<text x="70.0" y="209.0" font-family="Arial, sans-serif" font-size="11" text-anchor="end" fill="#111827">105%</text>
<line x1="80.0" y1="115.0" x2="1080.0" y2="115.0" stroke="#e5e7eb" stroke-width="1"/>
<text x="70.0" y="119.0" font-family="Arial, sans-serif" font-size="11" text-anchor="end" fill="#111827">115%</text>
<line x1="80.0" y1="70.0" x2="80.0" y2="520.0" stroke="#475569" stroke-width="1"/>
<line x1="80.0" y1="520.0" x2="1080.0" y2="520.0" stroke="#475569" stroke-width="1"/>
<rect x="126.7" y="251.9" width="28.0" height="268.1" rx="2" fill="#64748b"/>
<rect x="162.7" y="247.1" width="28.0" height="272.9" rx="2" fill="#0f766e"/>
<rect x="198.7" y="404.4" width="28.0" height="115.6" rx="2" fill="#b45309"/>
<rect x="234.7" y="323.8" width="28.0" height="196.2" rx="2" fill="#2563eb"/>
<rect x="270.7" y="250.0" width="28.0" height="270.0" rx="2" fill="#7c3aed"/>
<text x="246.7" y="546.0" font-family="Arial, sans-serif" font-size="13" text-anchor="middle" fill="#111827">Mild</text>
<rect x="460.0" y="315.3" width="28.0" height="204.7" rx="2" fill="#64748b"/>
<rect x="496.0" y="314.2" width="28.0" height="205.8" rx="2" fill="#0f766e"/>
<rect x="532.0" y="447.0" width="28.0" height="73.0" rx="2" fill="#b45309"/>
<rect x="568.0" y="387.1" width="28.0" height="132.9" rx="2" fill="#2563eb"/>
<rect x="604.0" y="250.0" width="28.0" height="270.0" rx="2" fill="#7c3aed"/>
<text x="580.0" y="546.0" font-family="Arial, sans-serif" font-size="13" text-anchor="middle" fill="#111827">Tight</text>
<rect x="793.3" y="302.1" width="28.0" height="217.9" rx="2" fill="#64748b"/>
<rect x="829.3" y="303.1" width="28.0" height="216.9" rx="2" fill="#0f766e"/>
<rect x="865.3" y="527.7" width="28.0" height="-7.7" rx="2" fill="#b45309"/>
<rect x="901.3" y="460.2" width="28.0" height="59.8" rx="2" fill="#2563eb"/>
<rect x="937.3" y="250.0" width="28.0" height="270.0" rx="2" fill="#7c3aed"/>
<text x="913.3" y="546.0" font-family="Arial, sans-serif" font-size="13" text-anchor="middle" fill="#111827">Scarce</text>
<rect x="80.0" y="566.0" width="14.0" height="14.0" rx="2" fill="#64748b"/>
<text x="100.0" y="578.0" font-family="Arial, sans-serif" font-size="12" text-anchor="start" fill="#111827">Myopic</text>
<rect x="270.0" y="566.0" width="14.0" height="14.0" rx="2" fill="#0f766e"/>
<text x="290.0" y="578.0" font-family="Arial, sans-serif" font-size="12" text-anchor="start" fill="#111827">Bid price</text>
<rect x="460.0" y="566.0" width="14.0" height="14.0" rx="2" fill="#b45309"/>
<text x="480.0" y="578.0" font-family="Arial, sans-serif" font-size="12" text-anchor="start" fill="#111827">Linear surrogate</text>
<rect x="650.0" y="566.0" width="14.0" height="14.0" rx="2" fill="#2563eb"/>
<text x="670.0" y="578.0" font-family="Arial, sans-serif" font-size="12" text-anchor="start" fill="#111827">Cascade</text>
<rect x="840.0" y="566.0" width="14.0" height="14.0" rx="2" fill="#7c3aed"/>
<text x="860.0" y="578.0" font-family="Arial, sans-serif" font-size="12" text-anchor="start" fill="#111827">Rollout</text>
</svg>