<svg xmlns="http://www.w3.org/2000/svg" width="920" height="600" viewBox="0 0 920 600">
<rect width="100%" height="100%" fill="#ffffff"/>
<text x="460.0" y="34.0" font-family="Arial, sans-serif" font-size="22" text-anchor="middle" fill="#111827">Rollout Share-Profit Frontier</text>
<text x="460.0" y="580.0" font-family="Arial, sans-serif" font-size="13" text-anchor="middle" fill="#111827">Rollout-call share</text>
<text x="24.0" y="301.0" font-family="Arial, sans-serif" font-size="13" text-anchor="middle" fill="#111827">Profit retention vs rollout</text>
<line x1="82.0" y1="530.0" x2="740.0" y2="530.0" stroke="#e5e7eb" stroke-width="1"/>
<text x="72.0" y="534.0" font-family="Arial, sans-serif" font-size="11" text-anchor="end" fill="#111827">68%</text>
<line x1="82.0" y1="438.4" x2="740.0" y2="438.4" stroke="#e5e7eb" stroke-width="1"/>
<text x="72.0" y="442.4" font-family="Arial, sans-serif" font-size="11" text-anchor="end" fill="#111827">76%</text>
<line x1="82.0" y1="346.8" x2="740.0" y2="346.8" stroke="#e5e7eb" stroke-width="1"/>
<text x="72.0" y="350.8" font-family="Arial, sans-serif" font-size="11" text-anchor="end" fill="#111827">83%</text>
<line x1="82.0" y1="255.2" x2="740.0" y2="255.2" stroke="#e5e7eb" stroke-width="1"/>
<text x="72.0" y="259.2" font-family="Arial, sans-serif" font-size="11" text-anchor="end" fill="#111827">90%</text>
<line x1="82.0" y1="163.6" x2="740.0" y2="163.6" stroke="#e5e7eb" stroke-width="1"/>
<text x="72.0" y="167.6" font-family="Arial, sans-serif" font-size="11" text-anchor="end" fill="#111827">98%</text>
<line x1="82.0" y1="72.0" x2="740.0" y2="72.0" stroke="#e5e7eb" stroke-width="1"/>
<text x="72.0" y="76.0" font-family="Arial, sans-serif" font-size="11" text-anchor="end" fill="#111827">105%</text>
<line x1="82.0" y1="72.0" x2="82.0" y2="530.0" stroke="#f1f5f9" stroke-width="1"/>
<text x="82.0" y="550.0" font-family="Arial, sans-serif" font-size="11" text-anchor="middle" fill="#111827">0.0</text>
<line x1="213.6" y1="72.0" x2="213.6" y2="530.0" stroke="#f1f5f9" stroke-width="1"/>
<text x="213.6" y="550.0" font-family="Arial, sans-serif" font-size="11" text-anchor="middle" fill="#111827">0.2</text>
<line x1="345.2" y1="72.0" x2="345.2" y2="530.0" stroke="#f1f5f9" stroke-width="1"/>
<text x="345.2" y="550.0" font-family="Arial, sans-serif" font-size="11" text-anchor="middle" fill="#111827">0.3</text>
<line x1="476.8" y1="72.0" x2="476.8" y2="530.0" stroke="#f1f5f9" stroke-width="1"/>
<text x="476.8" y="550.0" font-family="Arial, sans-serif" font-size="11" text-anchor="middle" fill="#111827">0.5</text>
<line x1="608.4" y1="72.0" x2="608.4" y2="530.0" stroke="#f1f5f9" stroke-width="1"/>
<text x="608.4" y="550.0" font-family="Arial, sans-serif" font-size="11" text-anchor="middle" fill="#111827">0.6</text>
<line x1="740.0" y1="72.0" x2="740.0" y2="530.0" stroke="#f1f5f9" stroke-width="1"/>
<text x="740.0" y="550.0" font-family="Arial, sans-serif" font-size="11" text-anchor="middle" fill="#111827">0.8</text>
<line x1="82.0" y1="72.0" x2="82.0" y2="530.0" stroke="#475569" stroke-width="1"/>
<line x1="82.0" y1="530.0" x2="740.0" y2="530.0" stroke="#475569" stroke-width="1"/>
<circle cx="157.1" cy="334.8" r="4" fill="#0f766e"/>
<line x1="157.1" y1="334.8" x2="213.0" y2="315.6" stroke="#0f766e" stroke-width="2.5"/>
<circle cx="213.0" cy="315.6" r="4" fill="#0f766e"/>
<line x1="213.0" y1="315.6" x2="296.2" y2="284.2" stroke="#0f766e" stroke-width="2.5"/>
<circle cx="296.2" cy="284.2" r="4" fill="#0f766e"/>
<line x1="296.2" y1="284.2" x2="424.0" y2="236.8" stroke="#0f766e" stroke-width="2.5"/>
<circle cx="424.0" cy="236.8" r="4" fill="#0f766e"/>
<line x1="424.0" y1="236.8" x2="525.0" y2="218.6" stroke="#0f766e" stroke-width="2.5"/>
<circle cx="525.0" cy="218.6" r="4" fill="#0f766e"/>
<line x1="525.0" y1="218.6" x2="612.3" y2="199.5" stroke="#0f766e" stroke-width="2.5"/>
<circle cx="612.3" cy="199.5" r="4" fill="#0f766e"/>
<line x1="612.3" y1="199.5" x2="691.3" y2="184.8" stroke="#0f766e" stroke-width="2.5"/>
<circle cx="691.3" cy="184.8" r="4" fill="#0f766e"/>
<rect x="780.0" y="88.0" width="14.0" height="14.0" rx="2" fill="#0f766e"/>
<text x="800.0" y="100.0" font-family="Arial, sans-serif" font-size="12" text-anchor="start" fill="#111827">Mild</text>
<circle cx="170.5" cy="394.2" r="4" fill="#2563eb"/>
<line x1="170.5" y1="394.2" x2="223.3" y2="385.5" stroke="#2563eb" stroke-width="2.5"/>
<circle cx="223.3" cy="385.5" r="4" fill="#2563eb"/>
<line x1="223.3" y1="385.5" x2="306.7" y2="351.5" stroke="#2563eb" stroke-width="2.5"/>
<circle cx="306.7" cy="351.5" r="4" fill="#2563eb"/>
<line x1="306.7" y1="351.5" x2="420.4" y2="324.7" stroke="#2563eb" stroke-width="2.5"/>
<circle cx="420.4" cy="324.7" r="4" fill="#2563eb"/>
<line x1="420.4" y1="324.7" x2="501.3" y2="293.3" stroke="#2563eb" stroke-width="2.5"/>
<circle cx="501.3" cy="293.3" r="4" fill="#2563eb"/>
<line x1="501.3" y1="293.3" x2="566.5" y2="284.5" stroke="#2563eb" stroke-width="2.5"/>
<circle cx="566.5" cy="284.5" r="4" fill="#2563eb"/>
<line x1="566.5" y1="284.5" x2="643.3" y2="252.9" stroke="#2563eb" stroke-width="2.5"/>
<circle cx="643.3" cy="252.9" r="4" fill="#2563eb"/>
<rect x="780.0" y="114.0" width="14.0" height="14.0" rx="2" fill="#2563eb"/>
<text x="800.0" y="126.0" font-family="Arial, sans-serif" font-size="12" text-anchor="start" fill="#111827">Tight</text>
<circle cx="172.4" cy="492.5" r="4" fill="#b91c1c"/>
<line x1="172.4" y1="492.5" x2="223.0" y2="487.6" stroke="#b91c1c" stroke-width="2.5"/>
<circle cx="223.0" cy="487.6" r="4" fill="#b91c1c"/>
<line x1="223.0" y1="487.6" x2="315.1" y2="474.5" stroke="#b91c1c" stroke-width="2.5"/>
<circle cx="315.1" cy="474.5" r="4" fill="#b91c1c"/>
<line x1="315.1" y1="474.5" x2="399.8" y2="426.1" stroke="#b91c1c" stroke-width="2.5"/>
<circle cx="399.8" cy="426.1" r="4" fill="#b91c1c"/>
<line x1="399.8" y1="426.1" x2="464.9" y2="402.1" stroke="#b91c1c" stroke-width="2.5"/>
<circle cx="464.9" cy="402.1" r="4" fill="#b91c1c"/>
<line x1="464.9" y1="402.1" x2="537.1" y2="346.1" stroke="#b91c1c" stroke-width="2.5"/>
<circle cx="537.1" cy="346.1" r="4" fill="#b91c1c"/>
<line x1="537.1" y1="346.1" x2="615.0" y2="272.6" stroke="#b91c1c" stroke-width="2.5"/>
<circle cx="615.0" cy="272.6" r="4" fill="#b91c1c"/>
<rect x="780.0" y="140.0" width="14.0" height="14.0" rx="2" fill="#b91c1c"/>
<text x="800.0" y="152.0" font-family="Arial, sans-serif" font-size="12" text-anchor="start" fill="#111827">Scarce</text>
</svg>